#!OML:ASF G:\JayActor3\Patient Classification 1\Patient 1\Session 6\male.ASF
:FULLY-SPECIFIED
:DEGREES
2162
root 2.36875 15.3953 -23.6951 172.542 -21.5679 -176.724
lowerback 15.2637 -2.59217 -2.86135
upperback 6.473 -4.57285 0.78212
thorax -1.39966 -2.66661 3.16376
lowerneck -3.40745 4.58658 8.19089
upperneck 27.7913 0.644179 6.78677
head 9.46656 0.759681 0.844975
rclavicle -3.81667e-014 9.54166e-015
rhumerus -34.1487 18.9284 -95.7468
rradius 129.196
rwrist 8.97562
rhand 21.0039 -33.8446
rfingers 7.12502
rthumb 45.4691 -57.157
lclavicle -3.81667e-014 9.54166e-015
lhumerus -43.6295 2.78484 86.7413
lradius 118.32
lwrist 7.3888
lhand 8.40508 38.1585
lfingers 7.12502
lthumb 33.6121 65.0275
rfemur -28.5307 5.17062 17.6593
rtibia 51.027
rfoot -10.3032 17.4222
rtoes 5.5645
lfemur -7.97134 40.7812 -9.16901
ltibia 49.6687
lfoot -30.7085 19.1299
ltoes -4.03349
2163
root 2.36246 15.3964 -23.683 172.563 -21.4352 -176.662
lowerback 15.2971 -2.5856 -2.90666
upperback 6.48836 -4.57573 0.768329
thorax -1.39861 -2.67055 3.17683
lowerneck -3.38543 4.58412 8.19548
upperneck 27.8019 0.63188 6.78172
head 9.46655 0.750151 0.840622
rclavicle -1.20265e-014 5.96354e-015
rhumerus -34.1387 18.9166 -95.7129
rradius 129.18
rwrist 9.0129
rhand 21.037 -33.8428
rfingers 7.12502
rthumb 45.4998 -57.1427
lclavicle -1.20265e-014 5.96354e-015
lhumerus -43.5889 2.7528 86.7751
lradius 118.325
lwrist 7.371
lhand 8.41905 38.1569
lfingers 7.12502
lthumb 33.6254 65.0231
rfemur -28.5947 5.12147 17.6969
rtibia 50.9441
rfoot -10.1594 17.5238
rtoes 5.62456
lfemur -8.05957 40.8703 -9.17901
ltibia 49.7035
lfoot -30.7472 19.143
ltoes -3.97812
2164
root 2.35627 15.3977 -23.6713 172.586 -21.3171 -176.61
lowerback 15.3303 -2.57433 -2.96627
upperback 6.50225 -4.57408 0.755682
thorax -1.39806 -2.67233 3.19844
lowerneck -3.36506 4.57952 8.1891
upperneck 27.8179 0.614971 6.78391
head 9.46849 0.738187 0.840274
rclavicle 7.82218e-014 -3.77691e-014
rhumerus -34.1232 18.8998 -95.6727
rradius 129.162
rwrist 9.04353
rhand 21.0783 -33.8567
rfingers 7.12502
rthumb 45.5382 -57.141
lclavicle 7.82218e-014 -3.77691e-014
lhumerus -43.5491 2.71278 86.8222
lradius 118.329
lwrist 7.34247
lhand 8.43706 38.1627
lfingers 7.12502
lthumb 33.6425 65.0252
rfemur -28.657 5.04665 17.7238
rtibia 50.8662
rfoot -9.96602 17.678
rtoes 5.86757
lfemur -8.1434 40.9596 -9.19717
ltibia 49.7352
lfoot -30.7808 19.149
ltoes -3.93988
2165
root 2.35018 15.3989 -23.6602 172.612 -21.2142 -176.569
lowerback 15.3598 -2.55999 -3.03783
upperback 6.51771 -4.57003 0.742455
thorax -1.39323 -2.67325 3.22542
lowerneck -3.34757 4.57279 8.17498
upperneck 27.8354 0.596151 6.78695
head 9.47122 0.725018 0.841421
rclavicle 7.05686e-015 -1.31198e-014
rhumerus -34.1078 18.8884 -95.6272
rradius 129.144
rwrist 9.06982
rhand 21.1211 -33.8719
rfingers 7.12502
rthumb 45.578 -57.1401
lclavicle 7.05686e-015 -1.31198e-014
lhumerus -43.5066 2.66612 86.8685
lradius 118.336
lwrist 7.3386
lhand 8.42189 38.1647
lfingers 7.12502
lthumb 33.6281 65.0303
rfemur -28.7175 4.95915 17.7386
rtibia 50.7946
rfoot -9.80261 17.8113
rtoes 5.98671
lfemur -8.22405 41.0472 -9.22506
ltibia 49.7638
lfoot -30.8119 19.1465
ltoes -3.91219
2166
root 2.34402 15.3999 -23.6494 172.631 -21.1273 -176.527
lowerback 15.3906 -2.54698 -3.10638
upperback 6.53661 -4.56786 0.72861
thorax -1.38557 -2.67539 3.25028
lowerneck -3.33162 4.56652 8.15927
upperneck 27.8529 0.580406 6.78524
head 9.47414 0.713077 0.841541
rclavicle -2.27608e-014 2.14687e-014
rhumerus -34.0877 18.886 -95.5838
rradius 129.124
rwrist 9.09028
rhand 21.1685 -33.8906
rfingers 7.12502
rthumb 45.622 -57.1409
lclavicle -2.27608e-014 2.14687e-014
lhumerus -43.4615 2.61742 86.9083
lradius 118.343
lwrist 7.37765
lhand 8.34642 38.1615
lfingers 7.12502
lthumb 33.5563 65.0426
rfemur -28.7679 4.87289 17.7525
rtibia 50.7294
rfoot -9.69339 17.9007
rtoes 5.94444
lfemur -8.29784 41.1285 -9.24681
ltibia 49.7935
lfoot -30.8381 19.1385
ltoes -3.90659
2167
root 2.33782 15.4006 -23.6389 172.642 -21.0605 -176.479
lowerback 15.4211 -2.53818 -3.16109
upperback 6.56059 -4.57 0.711469
thorax -1.37346 -2.67984 3.26434
lowerneck -3.31881 4.56096 8.1456
upperneck 27.8699 0.568092 6.77719
head 9.47752 0.702841 0.839524
rclavicle 5.61567e-014 -1.43125e-014
rhumerus -34.0575 18.8883 -95.5496
rradius 129.096
rwrist 9.11079
rhand 21.2162 -33.9142
rfingers 7.12502
rthumb 45.6663 -57.1464
lclavicle 5.61567e-014 -1.43125e-014
lhumerus -43.4131 2.568 86.9306
lradius 118.348
lwrist 7.45599
lhand 8.24124 38.1593
lfingers 7.12502
lthumb 33.4564 65.0621
rfemur -28.8073 4.79758 17.7687
rtibia 50.669
rfoot -9.59686 17.9653
rtoes 5.90507
lfemur -8.36976 41.1979 -9.2616
ltibia 49.8279
lfoot -30.862 19.1273
ltoes -3.9178
2168
root 2.33172 15.401 -23.6285 172.647 -21.0162 -176.423
lowerback 15.4518 -2.53523 -3.20032
upperback 6.5865 -4.57788 0.691992
thorax -1.36035 -2.68696 3.26808
lowerneck -3.30357 4.55835 8.13105
upperneck 27.8845 0.562975 6.7651
head 9.47946 0.695744 0.836907
rclavicle 6.60959e-014 -2.8625e-014
rhumerus -34.0269 18.8981 -95.5265
rradius 129.065
rwrist 9.13159
rhand 21.2659 -33.9433
rfingers 7.12502
rthumb 45.7125 -57.1566
lclavicle 6.60959e-014 -2.8625e-014
lhumerus -43.3669 2.52972 86.934
lradius 118.355
lwrist 7.55277
lhand 8.14413 38.1502
lfingers 7.12502
lthumb 33.3641 65.0729
rfemur -28.8405 4.74142 17.7895
rtibia 50.6125
rfoot -9.50809 17.9975
rtoes 5.88997
lfemur -8.44915 41.2539 -9.271
ltibia 49.8707
lfoot -30.8827 19.1117
ltoes -3.94262
2169
root 2.32578 15.401 -23.6183 172.644 -20.9982 -176.355
lowerback 15.4889 -2.53962 -3.22153
upperback 6.61157 -4.59301 0.671209
thorax -1.35248 -2.69716 3.26199
lowerneck -3.28554 4.55703 8.11972
upperneck 27.9007 0.561469 6.74651
head 9.48152 0.69014 0.831829
rclavicle 8.88567e-014 -1.11319e-014
rhumerus -34.0048 18.912 -95.5156
rradius 129.038
rwrist 9.14955
rhand 21.3131 -33.9743
rfingers 7.12502
rthumb 45.7563 -57.1696
lclavicle 8.88567e-014 -1.11319e-014
lhumerus -43.3259 2.50695 86.9221
lradius 118.362
lwrist 7.63359
lhand 8.10696 38.1423
lfingers 7.12502
lthumb 33.3287 65.0725
rfemur -28.8642 4.70836 17.8174
rtibia 50.5589
rfoot -9.4467 17.9842
rtoes 5.85097
lfemur -8.53528 41.2921 -9.27223
ltibia 49.9223
lfoot -30.8996 19.094
ltoes -3.97978
2170
root 2.32018 15.4009 -23.6083 172.64 -21.0038 -176.287
lowerback 15.5296 -2.54502 -3.23819
upperback 6.63294 -4.60833 0.649693
thorax -1.35083 -2.70688 3.25307
lowerneck -3.26707 4.55594 8.11064
upperneck 27.9207 0.560519 6.72525
head 9.48494 0.684964 0.82556
rclavicle -1.0138e-014 3.02153e-014
rhumerus -33.9998 18.9236 -95.5136
rradius 129.019
rwrist 9.16771
rhand 21.3471 -34.0109
rfingers 7.12502
rthumb 45.7879 -57.1932
lclavicle -1.0138e-014 3.02153e-014
lhumerus -43.2918 2.48723 86.9051
lradius 118.371
lwrist 7.67155
lhand 8.15964 38.1532
lfingers 7.12502
lthumb 33.3788 65.0727
rfemur -28.8872 4.67597 17.8441
rtibia 50.5087
rfoot -9.3856 17.9573
rtoes 5.83239
lfemur -8.63134 41.3176 -9.27734
ltibia 49.9806
lfoot -30.9159 19.0684
ltoes -4.01023
2171
root 2.31506 15.4007 -23.5987 172.636 -21.0246 -176.223
lowerback 15.5784 -2.54635 -3.2641
upperback 6.64851 -4.61906 0.631687
thorax -1.35885 -2.71391 3.25318
lowerneck -3.24907 4.55415 8.10693
upperneck 27.9463 0.558884 6.69787
head 9.49063 0.679679 0.816296
rclavicle -3.97569e-014 -6.36111e-015
rhumerus -34.0138 18.9348 -95.5155
rradius 129.008
rwrist 9.18219
rhand 21.3678 -34.0425
rfingers 7.12502
rthumb 45.8071 -57.2169
lclavicle -3.97569e-014 -6.36111e-015
lhumerus -43.2674 2.4779 86.8967
lradius 118.382
lwrist 7.65069
lhand 8.30011 38.1826
lfingers 7.12502
lthumb 33.5123 65.0733
rfemur -28.9103 4.64748 17.8674
rtibia 50.4628
rfoot -9.31649 17.923
rtoes 5.86738
lfemur -8.73084 41.336 -9.28664
ltibia 50.0426
lfoot -30.9334 19.0351
ltoes -4.02918
2172
root 2.31046 15.4003 -23.5896 172.632 -21.0611 -176.166
lowerback 15.6207 -2.54521 -3.27923
upperback 6.66861 -4.62538 0.597031
thorax -1.36133 -2.71854 3.22849
lowerneck -3.23428 4.55422 8.11854
upperneck 27.9703 0.553699 6.68333
head 9.49703 0.675415 0.808656
rclavicle -6.36111e-015 -1.90833e-014
rhumerus -34.0304 18.9232 -95.5487
rradius 128.995
rwrist 9.19793
rhand 21.3818 -34.0678
rfingers 7.12502
rthumb 45.8201 -57.2369
lclavicle -6.36111e-015 -1.90833e-014
lhumerus -43.2388 2.45118 86.8751
lradius 118.389
lwrist 7.57967
lhand 8.50543 38.2304
lfingers 7.12502
lthumb 33.7075 65.0786
rfemur -28.9314 4.61428 17.8837
rtibia 50.4229
rfoot -9.25235 17.8786
rtoes 5.91172
lfemur -8.82733 41.3515 -9.29891
ltibia 50.105
lfoot -30.9443 18.9959
ltoes -4.04982
2173
root 2.30634 15.3998 -23.5811 172.625 -21.1096 -176.116
lowerback 15.6593 -2.54178 -3.2907
upperback 6.69189 -4.62847 0.551438
thorax -1.35998 -2.72154 3.18941
lowerneck -3.21874 4.5568 8.13796
upperneck 27.9914 0.547798 6.68111
head 9.50257 0.672584 0.803906
rclavicle 2.127e-014 -1.74931e-014
rhumerus -34.0532 18.9045 -95.6063
rradius 128.984
rwrist 9.21412
rhand 21.3847 -34.0808
rfingers 7.12502
rthumb 45.8228 -57.2488
lclavicle 2.127e-014 -1.74931e-014
lhumerus -43.2093 2.40808 86.8441
lradius 118.392
lwrist 7.50128
lhand 8.67435 38.2733
lfingers 7.12502
lthumb 33.8679 65.0863
rfemur -28.9493 4.57785 17.8946
rtibia 50.3902
rfoot -9.19054 17.8136
rtoes 5.97641
lfemur -8.91565 41.3673 -9.31022
ltibia 50.1654
lfoot -30.9502 18.9472
ltoes -4.06402
2174
root 2.3027 15.3991 -23.5732 172.618 -21.1697 -176.072
lowerback 15.6893 -2.53804 -3.29245
upperback 6.71906 -4.62997 0.491731
thorax -1.3522 -2.72359 3.12909
lowerneck -3.20096 4.56275 8.16735
upperneck 28.0069 0.542856 6.69099
head 9.50614 0.672084 0.801715
rclavicle 2.78299e-015 4.77083e-014
rhumerus -34.0734 18.8742 -95.6906
rradius 128.972
rwrist 9.23196
rhand 21.3817 -34.0691
rfingers 7.12502
rthumb 45.82 -57.2382
lclavicle 2.78299e-015 4.77083e-014
lhumerus -43.1758 2.34723 86.7988
lradius 118.388
lwrist 7.44525
lhand 8.74959 38.2883
lfingers 7.12502
lthumb 33.9394 65.0855
rfemur -28.9657 4.53777 17.9005
rtibia 50.3656
rfoot -9.12491 17.737
rtoes 6.09443
lfemur -8.99947 41.3825 -9.32083
ltibia 50.2232
lfoot -30.951 18.8874
ltoes -4.06853
